<?xml version="1.0" encoding="UTF-8" standalone="no"?>
<svg
   width="16"
   height="16"
   fill="currentColor"
   class="bi bi-calendar-date-fill"
   viewBox="0 0 16 16"
   version="1.1"
   id="svg5435"
   sodipodi:docname="calendar-colorl.svg"
   inkscape:version="1.1.1 (c3084ef, 2021-09-22)"
   xmlns:inkscape="http://www.inkscape.org/namespaces/inkscape"
   xmlns:sodipodi="http://sodipodi.sourceforge.net/DTD/sodipodi-0.dtd"
   xmlns="http://www.w3.org/2000/svg"
   xmlns:svg="http://www.w3.org/2000/svg">
  <defs
     id="defs5439" />
  <sodipodi:namedview
     id="namedview5437"
     pagecolor="#ffffff"
     bordercolor="#666666"
     borderopacity="1.0"
     inkscape:pageshadow="2"
     inkscape:pageopacity="0.0"
     inkscape:pagecheckerboard="0"
     showgrid="false"
     inkscape:zoom="20.312613"
     inkscape:cx="8.0491859"
     inkscape:cy="9.7722532"
     inkscape:window-width="1360"
     inkscape:window-height="657"
     inkscape:window-x="0"
     inkscape:window-y="25"
     inkscape:window-maximized="0"
     inkscape:current-layer="svg5435" />
  <path
     d="M4 .5a.5.5 0 0 0-1 0V1H2a2 2 0 0 0-2 2v1h16V3a2 2 0 0 0-2-2h-1V.5a.5.5 0 0 0-1 0V1H4V.5zm5.402 9.746c.625 0 1.184-.484 1.184-1.18 0-.832-.527-1.23-1.16-1.23-.586 0-1.168.387-1.168 1.21 0 .817.543 1.2 1.144 1.2z"
     id="path5431"
     style="fill:#412766;fill-opacity:1" />
  <path
     d="M16 14V5H0v9a2 2 0 0 0 2 2h12a2 2 0 0 0 2-2zm-6.664-1.21c-1.11 0-1.656-.767-1.703-1.407h.683c.043.37.387.82 1.051.82.844 0 1.301-.848 1.305-2.164h-.027c-.153.414-.637.79-1.383.79-.852 0-1.676-.61-1.676-1.77 0-1.137.871-1.809 1.797-1.809 1.172 0 1.953.734 1.953 2.668 0 1.805-.742 2.871-2 2.871zm-2.89-5.435v5.332H5.77V8.079h-.012c-.29.156-.883.52-1.258.777V8.16a12.6 12.6 0 0 1 1.313-.805h.632z"
     id="path5433"
     style="fill:#412766;fill-opacity:1" />
</svg>
