<?xml version="1.0" encoding="UTF-8" standalone="no"?>
<svg
   id="Layer_1"
   style="enable-background:new 0 0 24 24;"
   version="1.1"
   viewBox="0 0 24 24"
   xml:space="preserve"
   sodipodi:docname="check-white.svg"
   inkscape:version="1.1.1 (c3084ef, 2021-09-22)"
   xmlns:inkscape="http://www.inkscape.org/namespaces/inkscape"
   xmlns:sodipodi="http://sodipodi.sourceforge.net/DTD/sodipodi-0.dtd"
   xmlns="http://www.w3.org/2000/svg"
   xmlns:svg="http://www.w3.org/2000/svg"><defs
     id="defs5445" /><sodipodi:namedview
     id="namedview5443"
     pagecolor="#ffffff"
     bordercolor="#666666"
     borderopacity="1.0"
     inkscape:pageshadow="2"
     inkscape:pageopacity="0.0"
     inkscape:pagecheckerboard="0"
     showgrid="false"
     inkscape:zoom="11.746931"
     inkscape:cx="6.0866962"
     inkscape:cy="14.940073"
     inkscape:window-width="1366"
     inkscape:window-height="657"
     inkscape:window-x="0"
     inkscape:window-y="25"
     inkscape:window-maximized="0"
     inkscape:current-layer="Layer_1" /><path
     d="M13.54,8.76c0.18,0.32,0.52,0.5,0.87,0.5c0.17,0,0.34-0.04,0.5-0.13c0.48-0.28,0.64-0.89,0.37-1.37  c-0.19-0.32-0.41-0.63-0.66-0.91c-0.37-0.41-1-0.45-1.41-0.08c-0.41,0.37-0.45,1-0.08,1.41C13.27,8.35,13.42,8.55,13.54,8.76z"
     id="path5434"
     style="fill:#ffffff;fill-opacity:1" /><path
     d="M10.5,16c2.68,0,4.95-1.91,5.42-4.54c0.09-0.54-0.27-1.06-0.81-1.16c-0.54-0.1-1.06,0.27-1.16,0.81  C13.65,12.79,12.2,14,10.5,14C8.57,14,7,12.43,7,10.5S8.57,7,10.5,7c0.13,0,0.26,0.01,0.39,0.02c0.55,0.06,1.04-0.33,1.11-0.88  c0.06-0.55-0.33-1.04-0.88-1.11C10.91,5.01,10.71,5,10.5,5C7.47,5,5,7.47,5,10.5S7.47,16,10.5,16z"
     id="path5436"
     style="fill:#ffffff;fill-opacity:1" /><path
     d="M10,10.09L9.71,9.79c-0.39-0.39-1.02-0.39-1.41,0s-0.39,1.02,0,1.41l1,1c0.2,0.2,0.45,0.29,0.71,0.29s0.51-0.1,0.71-0.29  l2-2c0.39-0.39,0.39-1.02,0-1.41s-1.02-0.39-1.41,0L10,10.09z"
     id="path5438"
     style="fill:#ffffff;fill-opacity:1" /><path
     d="M10.5,19c1.77,0,3.41-0.54,4.78-1.47l5.08,4.24C20.55,21.92,20.77,22,21,22c0.29,0,0.57-0.12,0.77-0.36  c0.35-0.42,0.3-1.05-0.13-1.41L16.8,16.2c1.36-1.51,2.2-3.5,2.2-5.7C19,5.81,15.19,2,10.5,2C5.81,2,2,5.81,2,10.5  C2,15.19,5.81,19,10.5,19z M10.5,4c3.58,0,6.5,2.92,6.5,6.5S14.08,17,10.5,17S4,14.08,4,10.5S6.92,4,10.5,4z"
     id="path5440"
     style="fill:#ffffff;fill-opacity:1" /></svg>
