<?xml version="1.0" standalone="no"?>
<!DOCTYPE svg PUBLIC "-//W3C//DTD SVG 20010904//EN"
 "http://www.w3.org/TR/2001/REC-SVG-20010904/DTD/svg10.dtd">
<svg version="1.0" xmlns="http://www.w3.org/2000/svg"
 width="128.000000pt" height="128.000000pt" viewBox="0 0 128.000000 128.000000"
 preserveAspectRatio="xMidYMid meet">

<g transform="translate(0.000000,128.000000) scale(0.100000,-0.100000)"
fill="#000000" stroke="none">
<path d="M1055 1266 c-44 -7 -107 -21 -140 -30 -133 -39 -303 -145 -374 -234
-22 -29 -42 -41 -80 -51 -120 -30 -256 -158 -361 -337 -30 -52 -37 -71 -29
-86 5 -10 13 -18 18 -18 5 0 38 20 75 45 58 38 173 85 210 85 7 0 30 -24 50
-54 42 -62 112 -130 174 -171 23 -15 42 -33 42 -40 0 -38 -46 -153 -85 -211
-25 -37 -45 -70 -45 -75 0 -5 8 -13 18 -18 15 -8 33 -2 85 29 181 106 305 237
337 359 9 34 27 59 75 105 153 149 236 348 252 609 l6 107 -74 -1 c-41 -1
-110 -7 -154 -13z m153 -144 c-25 -282 -167 -514 -383 -621 -91 -46 -147 -58
-182 -40 -36 18 -164 146 -182 182 -18 35 -6 91 40 182 85 170 237 290 446
350 74 22 245 47 263 39 3 -2 2 -43 -2 -92z m-758 -245 c0 -1 -13 -34 -30 -72
-16 -39 -30 -78 -30 -87 0 -12 -8 -18 -23 -18 -23 0 -107 -21 -141 -35 -16 -7
-17 -5 -7 12 20 39 115 135 165 169 45 30 66 40 66 31z m430 -434 c0 -33 -144
-193 -202 -224 -19 -10 -20 -9 -13 7 14 34 35 118 35 141 0 15 6 23 18 23 9 0
46 14 82 29 71 32 80 34 80 24z"/>
<path d="M783 1000 c-89 -54 -103 -172 -29 -246 101 -101 266 -33 266 111 0
59 -25 106 -72 135 -44 26 -122 27 -165 0z m126 -54 c30 -16 51 -53 51 -92 0
-39 -51 -84 -95 -84 -51 0 -95 44 -95 95 0 27 8 44 29 66 33 32 67 37 110 15z"/>
<path d="M229 421 c-59 -37 -128 -140 -186 -278 -65 -153 -53 -165 100 -100
251 106 353 225 286 333 -26 43 -77 74 -121 74 -20 0 -52 -11 -79 -29z m110
-46 c16 -8 34 -28 41 -44 24 -58 -37 -119 -199 -200 -45 -23 -85 -40 -88 -38
-7 8 76 167 113 218 19 26 48 54 66 62 40 20 33 20 67 2z"/>
</g>
</svg>
