<?xml version="1.0" encoding="UTF-8" standalone="no"?>
<svg
   width="16"
   height="16"
   fill="currentColor"
   class="bi bi-stopwatch-fill"
   viewBox="0 0 16 16"
   version="1.1"
   id="svg5655"
   sodipodi:docname="stopwatch-color.svg"
   inkscape:version="1.1.1 (c3084ef, 2021-09-22)"
   xmlns:inkscape="http://www.inkscape.org/namespaces/inkscape"
   xmlns:sodipodi="http://sodipodi.sourceforge.net/DTD/sodipodi-0.dtd"
   xmlns="http://www.w3.org/2000/svg"
   xmlns:svg="http://www.w3.org/2000/svg">
  <defs
     id="defs5659" />
  <sodipodi:namedview
     id="namedview5657"
     pagecolor="#ffffff"
     bordercolor="#666666"
     borderopacity="1.0"
     inkscape:pageshadow="2"
     inkscape:pageopacity="0.0"
     inkscape:pagecheckerboard="0"
     showgrid="false"
     inkscape:zoom="22.229549"
     inkscape:cx="5.8255793"
     inkscape:cy="8.6146597"
     inkscape:window-width="1360"
     inkscape:window-height="657"
     inkscape:window-x="0"
     inkscape:window-y="25"
     inkscape:window-maximized="0"
     inkscape:current-layer="svg5655" />
  <path
     d="M6.5 0a.5.5 0 0 0 0 1H7v1.07A7.001 7.001 0 0 0 8 16a7 7 0 0 0 5.29-11.584.531.531 0 0 0 .013-.012l.354-.354.353.354a.5.5 0 1 0 .707-.707l-1.414-1.415a.5.5 0 1 0-.707.707l.354.354-.354.354a.717.717 0 0 0-.012.012A6.973 6.973 0 0 0 9 2.071V1h.5a.5.5 0 0 0 0-1h-3zm2 5.6V9a.5.5 0 0 1-.5.5H4.5a.5.5 0 0 1 0-1h3V5.6a.5.5 0 1 1 1 0z"
     id="path5653"
     style="fill:#412766;fill-opacity:1" />
</svg>
